<?xml version="1.0" encoding="UTF-8" standalone="no"?>
<!-- Created with Inkscape (http://www.inkscape.org/) -->
<svg xmlns:rdf="http://www.w3.org/1999/02/22-rdf-syntax-ns#" xmlns="http://www.w3.org/2000/svg" xmlns:cc="http://web.resource.org/cc/" xmlns:dc="http://purl.org/dc/elements/1.1/" xmlns:svg="http://www.w3.org/2000/svg" xmlns:inkscape="http://www.inkscape.org/namespaces/inkscape" xmlns:sodipodi="http://sodipodi.sourceforge.net/DTD/sodipodi-0.dtd" xmlns:ns1="http://sozi.baierouge.fr" xmlns:xlink="http://www.w3.org/1999/xlink" id="svg2" viewBox="0 0 720 720" version="1.1" inkscape:version="0.91 r13725">
  <g id="layer1" transform="translate(0 -332.36)">
    <path id="path3062" style="fill:#ff0000" d="m328.94 152.08 225.11 389.9-450.21 2e-13 225.11-389.9z" transform="matrix(.93289 0 0 .93289 53.14 274.89)"/>
    <path id="path3074" style="fill:#00ff00" d="m328.94 152.08 225.11 389.9-450.21 2e-13 225.11-389.9z" transform="matrix(.93289 0 0 .93289 158.14 456.75)"/>
    <path id="path3076" style="fill:#0000ff" d="m328.94 152.08 225.11 389.9-450.21 2e-13 225.11-389.9z" transform="matrix(.93289 0 0 .93289 -51.86 456.75)"/>
    <path id="path3078" style="fill:#00ffff" d="m328.94 152.08 225.11 389.9-450.21 2e-13 225.11-389.9z" transform="matrix(.46644 0 0 .46644 206.57 709.56)"/>
    <path id="path3080" style="fill:#ff00ff" d="m328.94 152.08 225.11 389.9-450.21 2e-13 225.11-389.9z" transform="matrix(.46644 0 0 .46644 101.57 527.69)"/>
    <path id="path3082" style="fill:#ffff00" d="m328.94 152.08 225.11 389.9-450.21 2e-13 225.11-389.9z" transform="matrix(.46644 0 0 .46644 311.57 527.69)"/>
  </g>
  <metadata>
    <rdf:RDF>
      <cc:Work>
        <dc:format>image/svg+xml</dc:format>
        <dc:type rdf:resource="http://purl.org/dc/dcmitype/StillImage"/>
        <cc:license rdf:resource="http://creativecommons.org/licenses/publicdomain/"/>
        <dc:publisher>
          <cc:Agent rdf:about="http://openclipart.org/">
            <dc:title>Openclipart</dc:title>
          </cc:Agent>
        </dc:publisher>
        <dc:title>triangle rgb mix</dc:title>
        <dc:date>2011-05-13T16:30:51</dc:date>
        <dc:description>Somewhat different than the other mixes in that it doesn't include white in the middle.</dc:description>
        <dc:source>https://openclipart.org/detail/138553/triangle-rgb-mix-by-10binary</dc:source>
        <dc:creator>
          <cc:Agent>
            <dc:title>10binary</dc:title>
          </cc:Agent>
        </dc:creator>
        <dc:subject>
          <rdf:Bag>
            <rdf:li>mix</rdf:li>
            <rdf:li>rgb</rdf:li>
            <rdf:li>triangle</rdf:li>
          </rdf:Bag>
        </dc:subject>
      </cc:Work>
      <cc:License rdf:about="http://creativecommons.org/licenses/publicdomain/">
        <cc:permits rdf:resource="http://creativecommons.org/ns#Reproduction"/>
        <cc:permits rdf:resource="http://creativecommons.org/ns#Distribution"/>
        <cc:permits rdf:resource="http://creativecommons.org/ns#DerivativeWorks"/>
      </cc:License>
    </rdf:RDF>
  </metadata>
</svg>
